<?xml version="1.0" encoding="UTF-8"?>
<svg id="Layer_2" data-name="Layer 2" xmlns="http://www.w3.org/2000/svg" viewBox="0 0 32.22 29.21">
  <defs>
    <style>
      .cls-1 {
        fill: #2a4b7f;
      }

      .cls-2 {
        fill: #eb2028;
      }

      .cls-3 {
        fill: #1c4077;
      }

      .cls-4 {
        fill: #04417e;
      }

      .cls-5 {
        fill: #032967;
      }
    </style>
  </defs>
  <g id="Layer_1-2" data-name="Layer 1">
    <g>
      <g>
        <path class="cls-3" d="M23.63,0v4.92c.26.26,6.23-.18,7.5,0l.25.48.25-.48c.87.41.57,1.88.39,2.6-.91,3.72-5.51,2.73-8.39,2.81v11.07c0,1.76,2.75,2.03,3,2.21.11.08-.45.83.73,1.02s2.11.16,1.77-1.02c.49-.02,1.03.06,1.5,0,.9,1.53.69,3.16-.5,4.43-4.55,2.96-10.9-.07-12.5-4.92.04-.65-.02-1.31,0-1.97v-.49c.07-3.11-.07-6.24,0-9.35.09-4.33-.87-7.89,2.5-11.31h3.5Z"/>
        <path class="cls-1" d="M30.63,23.61c.18-.02.74-.82,1.5-.49.21,2.63.2,3.48-2,4.92,1.19-1.26,1.4-2.9.5-4.43Z"/>
        <path class="cls-1" d="M29.13,23.61c.33,1.18-.61,1.21-1.77,1.02s-.61-.94-.73-1.02c.83-.02,1.67.03,2.5,0Z"/>
        <path class="cls-5" d="M31.13,4.92c.18.02.39-.05.5,0l-.25.48-.25-.48Z"/>
        <path class="cls-4" d="M17.63,21.15c0-.16,0-.33,0-.49v.49Z"/>
      </g>
      <path class="cls-2" d="M17.63,11.31c-.07,3.11.07,6.24,0,9.35,0,.16,0,.33,0,.49-.02.65.04,1.32,0,1.97-.17,3.01.12,3.26-2.98,4.7-3.84,1.78-9.72,2.06-12.8-1.23-2.6-2.79-2.67-8.93,1.08-10.78,1.18-.58,1.98-.31,2.82-.58.43-.14.36-.86.72-.94,1.05-.25,5.4.23,5.65-.02.03-6.19-5.68-3.62-9.5-2.46.08-.77-1.28-3.05-1-3.42.16-.21,4.34-1.7,4.99-1.8s4.64-.25,5.21-.19c2.63.28,4.5,2.93,5.8,4.91ZM12.13,18.2c-2.76-.45-6.6.14-6.48,3.64.09,2.51,1.4,3.27,3.72,3.28,4.65.01,2.19-3.56,2.76-6.92Z"/>
    </g>
  </g>
</svg>